<svg width="20" height="20" viewBox="0 0 20 20" fill="none" xmlns="http://www.w3.org/2000/svg">
<g clip-path="url(#clip0_101_10122)">
<path d="M15.104 11.8904C13.7139 11.8904 12.583 13.0213 12.583 14.4114C12.583 15.8015 13.7139 16.9324 15.104 16.9324C16.4944 16.9324 17.625 15.8015 17.625 14.4114C17.625 13.0213 16.4941 11.8904 15.104 11.8904ZM15.104 15.6719C14.4089 15.6719 13.8435 15.1066 13.8435 14.4114C13.8435 13.7162 14.4089 13.1509 15.104 13.1509C15.7992 13.1509 16.3645 13.7162 16.3645 14.4114C16.3645 15.1066 15.7992 15.6719 15.104 15.6719Z" fill="url(#paint0_linear_101_10122)"/>
<path d="M6.48977 11.8904C5.09965 11.8904 3.96875 13.0213 3.96875 14.4114C3.96875 15.8015 5.09965 16.9324 6.48977 16.9324C7.87988 16.9324 9.01078 15.8015 9.01078 14.4114C9.01078 13.0213 7.87988 11.8904 6.48977 11.8904ZM6.48977 15.6719C5.79461 15.6719 5.22926 15.1066 5.22926 14.4114C5.22926 13.7162 5.79461 13.1509 6.48977 13.1509C7.18473 13.1509 7.75027 13.7162 7.75027 14.4114C7.75027 15.1066 7.18492 15.6719 6.48977 15.6719Z" fill="url(#paint1_linear_101_10122)"/>
<path d="M16.8005 4.67471C16.6934 4.46189 16.4755 4.32764 16.2373 4.32764H12.918V5.58815H15.8486L17.5648 9.00159L18.6913 8.43518L16.8005 4.67471Z" fill="url(#paint2_linear_101_10122)"/>
<path d="M13.2142 13.8027H8.44531V15.0632H13.2142V13.8027Z" fill="url(#paint3_linear_101_10122)"/>
<path d="M4.60121 13.8027H2.41637C2.06824 13.8027 1.78613 14.0849 1.78613 14.433C1.78613 14.7811 2.06828 15.0632 2.41637 15.0632H4.60125C4.94938 15.0632 5.23148 14.7811 5.23148 14.433C5.23148 14.0848 4.94934 13.8027 4.60121 13.8027Z" fill="url(#paint4_linear_101_10122)"/>
<path d="M19.868 9.94899L18.6284 8.35235C18.5093 8.19856 18.3254 8.10864 18.1307 8.10864H13.5508V3.69688C13.5508 3.34876 13.2687 3.06665 12.9206 3.06665H2.41637C2.06824 3.06665 1.78613 3.3488 1.78613 3.69688C1.78613 4.04497 2.06828 4.32712 2.41637 4.32712H12.2903V8.73888C12.2903 9.087 12.5725 9.36911 12.9205 9.36911H17.822L18.7399 10.5515V13.8019H16.9962C16.648 13.8019 16.3659 14.084 16.3659 14.4321C16.3659 14.7802 16.6481 15.0624 16.9962 15.0624H19.3701C19.7182 15.0624 20.0004 14.7802 20.0004 14.4321V10.3356C20.0004 10.1956 19.9538 10.0595 19.868 9.94899Z" fill="url(#paint5_linear_101_10122)"/>
<path d="M4.56066 10.6096H1.66148C1.31336 10.6096 1.03125 10.8918 1.03125 11.2399C1.03125 11.588 1.3134 11.8701 1.66148 11.8701H4.56063C4.90875 11.8701 5.19086 11.5879 5.19086 11.2399C5.1909 10.8918 4.90875 10.6096 4.56066 10.6096Z" fill="url(#paint6_linear_101_10122)"/>
<path d="M6.0084 8.13037H0.630234C0.282148 8.13037 0 8.41252 0 8.76064C0 9.10877 0.282148 9.39088 0.630234 9.39088H6.0084C6.35652 9.39088 6.63863 9.10873 6.63863 8.76064C6.63863 8.41256 6.35652 8.13037 6.0084 8.13037Z" fill="url(#paint7_linear_101_10122)"/>
<path d="M7.03965 5.65137H1.66148C1.31336 5.65137 1.03125 5.93352 1.03125 6.2816C1.03125 6.62973 1.3134 6.91184 1.66148 6.91184H7.03965C7.38777 6.91184 7.66988 6.62969 7.66988 6.2816C7.66992 5.93352 7.38777 5.65137 7.03965 5.65137Z" fill="url(#paint8_linear_101_10122)"/>
</g>
<defs>
<linearGradient id="paint0_linear_101_10122" x1="12.583" y1="14.4469" x2="17.625" y2="14.4469" gradientUnits="userSpaceOnUse">
<stop stop-color="#21A5B5"/>
<stop offset="1" stop-color="#71B2B4"/>
</linearGradient>
<linearGradient id="paint1_linear_101_10122" x1="3.96875" y1="14.4469" x2="9.01078" y2="14.4469" gradientUnits="userSpaceOnUse">
<stop stop-color="#21A5B5"/>
<stop offset="1" stop-color="#71B2B4"/>
</linearGradient>
<linearGradient id="paint2_linear_101_10122" x1="12.918" y1="6.69753" x2="18.6913" y2="6.69753" gradientUnits="userSpaceOnUse">
<stop stop-color="#21A5B5"/>
<stop offset="1" stop-color="#71B2B4"/>
</linearGradient>
<linearGradient id="paint3_linear_101_10122" x1="8.44531" y1="14.4419" x2="13.2142" y2="14.4419" gradientUnits="userSpaceOnUse">
<stop stop-color="#21A5B5"/>
<stop offset="1" stop-color="#71B2B4"/>
</linearGradient>
<linearGradient id="paint4_linear_101_10122" x1="1.78613" y1="14.4418" x2="5.23148" y2="14.4418" gradientUnits="userSpaceOnUse">
<stop stop-color="#21A5B5"/>
<stop offset="1" stop-color="#71B2B4"/>
</linearGradient>
<linearGradient id="paint5_linear_101_10122" x1="1.78613" y1="9.14898" x2="20.0004" y2="9.14898" gradientUnits="userSpaceOnUse">
<stop stop-color="#21A5B5"/>
<stop offset="1" stop-color="#71B2B4"/>
</linearGradient>
<linearGradient id="paint6_linear_101_10122" x1="1.03125" y1="11.2487" x2="5.19086" y2="11.2487" gradientUnits="userSpaceOnUse">
<stop stop-color="#21A5B5"/>
<stop offset="1" stop-color="#71B2B4"/>
</linearGradient>
<linearGradient id="paint7_linear_101_10122" x1="-1.72192e-08" y1="8.7695" x2="6.63863" y2="8.7695" gradientUnits="userSpaceOnUse">
<stop stop-color="#21A5B5"/>
<stop offset="1" stop-color="#71B2B4"/>
</linearGradient>
<linearGradient id="paint8_linear_101_10122" x1="1.03125" y1="6.29048" x2="7.66988" y2="6.29048" gradientUnits="userSpaceOnUse">
<stop stop-color="#21A5B5"/>
<stop offset="1" stop-color="#71B2B4"/>
</linearGradient>
<clipPath id="clip0_101_10122">
<rect width="20" height="20" fill="white"/>
</clipPath>
</defs>
</svg>
