<svg width="20" height="20" viewBox="0 0 20 20" fill="none" xmlns="http://www.w3.org/2000/svg">
<g clip-path="url(#clip0_101_10150)">
<path d="M16.9033 8.15911H16.1076C16.1889 7.95153 16.234 7.72595 16.234 7.48985C16.234 6.47466 15.4081 5.64868 14.3929 5.64868C13.9081 5.64868 13.4668 5.83731 13.1377 6.14462C12.8085 5.83728 12.3672 5.64868 11.8825 5.64868C10.8673 5.64868 10.0413 6.47466 10.0413 7.48985C10.0413 7.72591 10.0864 7.95149 10.1678 8.15911H9.37207C9.04848 8.15911 8.78613 8.42145 8.78613 8.74505V11.2555C8.78613 11.5791 9.04848 11.8415 9.37207 11.8415H9.41375V13.7659C9.41375 14.0895 9.6761 14.3518 9.99969 14.3518H16.2758C16.5993 14.3518 16.8617 14.0895 16.8617 13.7659V11.8414H16.9033C17.2269 11.8414 17.4893 11.5791 17.4893 11.2555V8.74501C17.4893 8.42146 17.227 8.15911 16.9033 8.15911ZM12.5518 13.18H10.5856V11.8414H12.5518V13.18ZM12.5518 10.6696H9.95805V9.33099H12.5518V10.6696ZM12.5518 8.15911H11.8825C11.5135 8.15911 11.2132 7.85888 11.2132 7.48985C11.2132 7.12083 11.5135 6.8206 11.8825 6.8206C12.2515 6.8206 12.5518 7.12087 12.5518 7.48989V8.15911ZM13.7236 7.48985C13.7236 7.12083 14.0239 6.82056 14.3929 6.82056C14.762 6.82056 15.0622 7.12083 15.0622 7.48985C15.0622 7.85888 14.762 8.15911 14.3929 8.15911H13.7236V7.48985ZM15.6898 13.18H13.7236V11.8414H15.6898V13.18ZM16.3174 10.6696H13.7236V9.33099H16.3174V10.6696Z" fill="url(#paint0_linear_101_10150)"/>
<path d="M17.5312 3.13794H2.46875C1.10746 3.13794 0 4.24544 0 5.60669V14.3932C0 15.7545 1.1075 16.8619 2.46875 16.8619H17.5312C18.8925 16.8619 20 15.7544 20 14.3932V5.60669C20 4.24544 18.8925 3.13794 17.5312 3.13794ZM18.8281 14.3932C18.8281 15.1083 18.2463 15.69 17.5312 15.69H2.46875C1.75363 15.69 1.17188 15.1083 1.17188 14.3932V5.60669C1.17188 4.89157 1.75367 4.30981 2.46875 4.30981H17.5312C18.2464 4.30981 18.8281 4.89161 18.8281 5.60669V14.3932Z" fill="url(#paint1_linear_101_10150)"/>
<path d="M4.98047 13.1792H3.09766C2.77406 13.1792 2.51172 13.4415 2.51172 13.7651C2.51172 14.0887 2.77406 14.3511 3.09766 14.3511H4.98047C5.30406 14.3511 5.56641 14.0887 5.56641 13.7651C5.56641 13.4415 5.30406 13.1792 4.98047 13.1792Z" fill="url(#paint2_linear_101_10150)"/>
<path d="M3.09766 6.82056H4.98047C5.30406 6.82056 5.56641 6.55821 5.56641 6.23462C5.56641 5.91103 5.30406 5.64868 4.98047 5.64868H3.09766C2.77406 5.64868 2.51172 5.91103 2.51172 6.23462C2.51172 6.55821 2.77402 6.82056 3.09766 6.82056Z" fill="url(#paint3_linear_101_10150)"/>
<path d="M6.86328 10.6694H3.09766C2.77406 10.6694 2.51172 10.9318 2.51172 11.2554C2.51172 11.579 2.77406 11.8413 3.09766 11.8413H6.86328C7.18688 11.8413 7.44922 11.579 7.44922 11.2554C7.44922 10.9318 7.18688 10.6694 6.86328 10.6694Z" fill="url(#paint4_linear_101_10150)"/>
</g>
<defs>
<linearGradient id="paint0_linear_101_10150" x1="8.78613" y1="10.0616" x2="17.4893" y2="10.0616" gradientUnits="userSpaceOnUse">
<stop stop-color="#21A5B5"/>
<stop offset="1" stop-color="#71B2B4"/>
</linearGradient>
<linearGradient id="paint1_linear_101_10150" x1="-5.18758e-08" y1="10.0966" x2="20" y2="10.0966" gradientUnits="userSpaceOnUse">
<stop stop-color="#21A5B5"/>
<stop offset="1" stop-color="#71B2B4"/>
</linearGradient>
<linearGradient id="paint2_linear_101_10150" x1="2.51172" y1="13.7734" x2="5.56641" y2="13.7734" gradientUnits="userSpaceOnUse">
<stop stop-color="#21A5B5"/>
<stop offset="1" stop-color="#71B2B4"/>
</linearGradient>
<linearGradient id="paint3_linear_101_10150" x1="2.51172" y1="6.24287" x2="5.56641" y2="6.24287" gradientUnits="userSpaceOnUse">
<stop stop-color="#21A5B5"/>
<stop offset="1" stop-color="#71B2B4"/>
</linearGradient>
<linearGradient id="paint4_linear_101_10150" x1="2.51172" y1="11.2636" x2="7.44922" y2="11.2636" gradientUnits="userSpaceOnUse">
<stop stop-color="#21A5B5"/>
<stop offset="1" stop-color="#71B2B4"/>
</linearGradient>
<clipPath id="clip0_101_10150">
<rect width="20" height="20" fill="white"/>
</clipPath>
</defs>
</svg>
