<svg width="14" height="24" viewBox="0 0 14 24" fill="none" xmlns="http://www.w3.org/2000/svg">
<path fill-rule="evenodd" clip-rule="evenodd" d="M3.60963 1.98888C3.34676 2.42581 3.0657 2.92192 2.79922 3.44754C2.22665 4.57693 1.74256 5.80202 1.62591 6.85306C1.50048 7.98331 1.75189 8.8505 2.05609 9.79068C2.07405 9.84619 2.09222 9.902 2.1105 9.95816C2.40105 10.8508 2.7204 11.8318 2.69275 13.0851C2.66166 14.494 2.08776 15.9583 1.62376 17.1423C1.60691 17.1853 1.5902 17.2279 1.57367 17.2702C1.33033 17.892 1.12786 18.4211 1.02526 18.8562C0.916628 19.317 0.95851 19.5245 1.01605 19.6092C1.31378 20.0472 1.68579 20.2241 2.19063 20.3746C2.2961 20.4061 2.41165 20.4369 2.53473 20.4698C2.98119 20.589 3.52672 20.7346 4.04961 21.0312C4.61192 21.3501 5.04118 21.7896 5.39141 22.1482C5.48857 22.2476 5.57966 22.3409 5.66581 22.4236C6.07846 22.8198 6.43738 23.0591 7.00257 23.0591C7.56776 23.0591 7.92669 22.8198 8.33934 22.4236C8.42549 22.3409 8.51657 22.2476 8.61374 22.1482C8.96396 21.7896 9.39323 21.3501 9.95553 21.0312C10.4784 20.7346 11.024 20.589 11.4704 20.4698C11.5935 20.4369 11.709 20.4061 11.8145 20.3746C12.3194 20.2241 12.6914 20.0472 12.9891 19.6092C13.0431 19.5297 13.084 19.3276 12.9662 18.864C12.8554 18.4275 12.643 17.8986 12.3917 17.2744L12.379 17.2428C11.895 16.0407 11.2853 14.5264 11.3124 13.0663C11.3367 11.7539 11.7677 10.7633 12.1587 9.86451C12.1749 9.82727 12.1911 9.79018 12.2071 9.75323C12.6118 8.82074 12.9584 7.96896 12.9089 6.82199C12.8664 5.83785 12.5053 4.67513 12.0478 3.57994C11.8549 3.11818 11.6479 2.67535 11.4464 2.27175C11.4123 2.75006 11.3148 3.25199 11.1087 3.72189C10.8697 4.2664 10.4828 4.77176 9.88379 5.13683C9.28741 5.50026 8.51429 5.70433 7.53464 5.70433C6.52008 5.70433 5.7272 5.4854 5.12312 5.09783C4.51683 4.70884 4.13794 4.17378 3.91228 3.60624C3.70162 3.07643 3.62163 2.51159 3.60963 1.98888ZM4.31789 0.0483949C4.50847 0.129214 4.73618 0.35704 4.67537 0.689566C4.55369 1.35493 4.46248 2.40409 4.80434 3.26387C4.97043 3.68156 5.23513 4.04591 5.64678 4.31002C6.06063 4.57554 6.66004 4.76341 7.53464 4.76341C8.37944 4.76341 8.96736 4.58807 9.37897 4.33724C9.78788 4.08804 10.0559 3.74429 10.2292 3.3494C10.586 2.53625 10.5312 1.52671 10.4178 0.827933C10.3602 0.473057 10.6231 0.255061 10.8052 0.186263C10.9878 0.117271 11.3502 0.10488 11.5405 0.434112C11.9056 1.06604 12.4589 2.08584 12.9338 3.2227C13.4052 4.35129 13.8162 5.63428 13.8658 6.78214C13.9251 8.15799 13.4969 9.18028 13.0881 10.1223C13.0767 10.1484 13.0654 10.1745 13.0541 10.2005C12.6564 11.1159 12.2908 11.9575 12.2699 13.0834C12.2468 14.3335 12.7798 15.68 13.2823 16.9284L13.2957 16.9615C13.5341 17.5537 13.7682 18.1353 13.8955 18.6362C14.0182 19.1194 14.0871 19.688 13.7856 20.1316C13.3093 20.8325 12.6887 21.0973 12.0926 21.275C11.9392 21.3208 11.7924 21.3602 11.6502 21.3984C11.2245 21.5128 10.8392 21.6164 10.4344 21.846C10.0013 22.0917 9.69878 22.4003 9.36454 22.7412C9.25164 22.8563 9.13512 22.9752 9.00873 23.0965C8.52419 23.5618 7.93573 24 7.00257 24C6.06941 24 5.48096 23.5618 4.99642 23.0965C4.87003 22.9752 4.75351 22.8563 4.6406 22.7412C4.30637 22.4003 4.00381 22.0917 3.57077 21.846C3.16592 21.6164 2.78061 21.5128 2.35491 21.3984C2.2127 21.3602 2.06599 21.3208 1.91253 21.275C1.31646 21.0973 0.695852 20.8325 0.21957 20.1316C-0.0784568 19.6931 -0.0223451 19.13 0.0922513 18.6439C0.212886 18.1322 0.442647 17.5384 0.679739 16.9325L0.704892 16.8683C1.1872 15.6361 1.70787 14.3059 1.73526 13.0647C1.75935 11.9726 1.48467 11.1268 1.19092 10.2223C1.17511 10.1736 1.15925 10.1248 1.14338 10.0757C0.833323 9.11743 0.525285 8.08966 0.67384 6.75107C0.809062 5.53263 1.3539 4.18798 1.94196 3.02804C2.53447 1.85932 3.19241 0.836898 3.58797 0.253807C3.78708 -0.039708 4.12575 -0.0330831 4.31789 0.0483949Z" fill="#2C2C2C"/>
</svg>
