<svg width="22" height="20" viewBox="0 0 22 20" fill="none" xmlns="http://www.w3.org/2000/svg">
<path fill-rule="evenodd" clip-rule="evenodd" d="M0.304474 5.25613C0.519777 5.20289 0.737949 5.33237 0.791775 5.54534L1.33266 7.68541C1.43442 7.67449 1.55242 7.66369 1.67996 7.65548C2.06949 7.63039 2.59841 7.62545 3.02222 7.74336C3.56321 7.89386 4.02281 8.18228 4.43319 8.46876C4.54656 8.54791 4.65489 8.62582 4.76041 8.7017C5.05258 8.91183 5.32317 9.10644 5.6196 9.26883C5.81375 9.37518 5.88397 9.61707 5.77645 9.80911C5.66893 10.0012 5.42438 10.0706 5.23024 9.96426C4.88658 9.776 4.55806 9.5396 4.25491 9.32145C4.15711 9.25108 4.06195 9.1826 3.96978 9.11826C3.57495 8.84264 3.20781 8.62079 2.80463 8.50863C2.52032 8.42953 2.10742 8.42459 1.73218 8.44876C1.66099 8.45334 1.59296 8.45883 1.52962 8.4647L3.73716 17.1991C4.02784 18.3492 5.07258 19.1561 6.27112 19.1561H15.6293C16.8278 19.1561 17.8726 18.3492 18.1633 17.1991L20.1175 9.46695C20.1096 9.45902 20.1014 9.45084 20.0929 9.44243C19.9848 9.33527 19.8315 9.19305 19.6504 9.05181C19.2686 8.75391 18.8425 8.52347 18.4847 8.52347C18.0848 8.52347 17.5311 8.73149 17.0319 8.97836C16.7922 9.0969 16.5817 9.21586 16.4311 9.30526C16.3559 9.34986 16.2962 9.38682 16.2556 9.41233C16.2354 9.42508 16.22 9.43496 16.2099 9.44147L16.1988 9.44865L16.1964 9.45023C16.0117 9.57193 15.7619 9.5228 15.6388 9.34018C15.5157 9.15752 15.5656 8.91074 15.7503 8.78897L15.9732 9.11969C15.7503 8.78897 15.7503 8.78897 15.7503 8.78897L15.7522 8.78771L15.7563 8.78504L15.7708 8.7756C15.7833 8.76755 15.8013 8.75608 15.8242 8.74166C15.87 8.71283 15.9358 8.67216 16.0176 8.62359C16.1809 8.52667 16.4099 8.39721 16.6725 8.26733C17.178 8.01734 17.88 7.72851 18.4847 7.72851C19.1314 7.72851 19.7433 8.11179 20.1481 8.42761C20.216 8.48058 20.2803 8.53344 20.3404 8.58487L21.1086 5.54534C21.1625 5.33237 21.3806 5.20289 21.5959 5.25613C21.8112 5.30937 21.9421 5.52518 21.8883 5.73814L18.9429 17.3919C18.5628 18.8959 17.1966 19.951 15.6293 19.951H6.27112C4.7038 19.951 3.33761 18.8959 2.95747 17.3919L0.012093 5.73814C-0.0417329 5.52518 0.0891705 5.30937 0.304474 5.25613Z" fill="#2C2C2C"/>
<path fill-rule="evenodd" clip-rule="evenodd" d="M13.9783 1.01911C13.0062 0.744388 11.9694 0.796843 11.0307 1.16824L10.9547 1.19831C10.4298 1.40599 9.94611 1.70373 9.5259 2.07781L6.0869 5.13934C5.82784 5.36997 5.85793 5.78028 6.14792 5.97151L6.42942 6.15714L8.37817 4.87207C8.97788 4.4766 9.65012 4.20117 10.3569 4.06135C11.2696 3.88079 12.1078 3.43705 12.7659 2.78605L13.1775 2.37899C13.3344 2.22377 13.5888 2.22377 13.7457 2.37899C13.9027 2.53422 13.9027 2.78589 13.7457 2.94111L13.3342 3.34817C12.5639 4.11015 11.5828 4.62954 10.5145 4.84087C9.91066 4.96033 9.33634 5.19564 8.82397 5.53352L6.98955 6.7432C7.16531 7.11546 7.16679 7.55546 6.97345 7.93794L5.40612 11.0386C5.35235 11.145 5.32437 11.2622 5.32437 11.3812C5.32437 11.6713 5.49008 11.9365 5.75242 12.0663L5.78268 12.0812L9.1042 6.91831C9.22335 6.73311 9.47172 6.67851 9.65895 6.79637C9.84618 6.91422 9.90138 7.1599 9.78223 7.3451L6.30984 12.7425C6.21295 13.4703 6.94802 14.0499 7.6528 13.7717L10.5973 8.43192C10.7036 8.2392 10.9477 8.16819 11.1425 8.27331C11.3374 8.37843 11.4092 8.61987 11.3029 8.81259L8.44771 13.9903C9.07093 14.3976 9.93243 14.2705 10.4004 13.6533L10.6069 13.3809L12.5999 9.4382C12.6991 9.24185 12.9405 9.16227 13.139 9.26044C13.3375 9.35861 13.418 9.59737 13.3187 9.79372L11.4107 13.5684C11.7607 13.9938 12.4616 13.9699 12.7659 13.4683L15.4418 9.05679C15.8759 8.34109 16.1906 7.56083 16.3736 6.74606L16.7684 4.98882C16.9511 4.17563 16.8114 3.3241 16.3781 2.60978C15.9489 1.90222 15.2639 1.38246 14.4618 1.15577L13.9783 1.01911ZM10.9514 14.2438C11.6758 14.8989 12.9004 14.7916 13.455 13.8773L16.131 9.4658C16.6095 8.67683 16.9564 7.81669 17.1582 6.91851L17.553 5.16127C17.7803 4.14933 17.6065 3.08968 17.0673 2.20078C16.5332 1.32028 15.6807 0.673491 14.6826 0.391401L14.199 0.254741C13.0557 -0.068383 11.8362 -0.00668702 10.7322 0.430139L10.6562 0.460207C10.0435 0.702648 9.47881 1.05022 8.98827 1.48692L5.54927 4.54845C4.90034 5.12615 4.97571 6.15394 5.70213 6.63296L6.16907 6.94088C6.32668 7.11639 6.36179 7.37041 6.25462 7.58242L4.68729 10.6831C4.57773 10.8998 4.52069 11.1388 4.52069 11.3812C4.52069 11.9724 4.85839 12.5129 5.39301 12.7773L5.4975 12.829C5.46485 14.0271 6.66561 14.9412 7.85321 14.5455C8.79209 15.2777 10.1652 15.1532 10.9514 14.2438Z" fill="#2C2C2C"/>
<path fill-rule="evenodd" clip-rule="evenodd" d="M10.7637 0.383102C11.8779 -0.0577443 13.1085 -0.120003 14.2624 0.206089L14.7459 0.342749C15.7561 0.628238 16.619 1.28286 17.1596 2.1742C17.7055 3.07407 17.8815 4.14687 17.6513 5.17139L17.2565 6.92864C17.1646 7.33797 17.0427 7.73945 16.892 8.12997C17.3766 7.90506 17.9918 7.67798 18.5345 7.67798C19.1989 7.67798 19.8222 8.07063 20.2285 8.38762C20.2745 8.42352 20.3189 8.45936 20.3615 8.49474L21.1102 5.53237C21.1708 5.29244 21.4162 5.14734 21.6577 5.20706C21.8993 5.26681 22.0471 5.50943 21.9864 5.74955L19.041 17.4033C18.6552 18.9297 17.2689 20 15.6791 20H6.32092C4.73112 20 3.34481 18.9297 2.95901 17.4033L0.0136311 5.74955C-0.0470578 5.50943 0.100659 5.26682 0.342316 5.20706C0.583793 5.14734 0.829188 5.29244 0.889828 5.53237L1.42015 7.63066C1.51223 7.62125 1.6158 7.61218 1.72656 7.60505C2.11699 7.57991 2.653 7.57437 3.08536 7.69465C3.63482 7.84751 4.10011 8.14002 4.51148 8.42719C4.62519 8.50657 4.73379 8.58468 4.83926 8.66053C5.05998 8.81927 5.26678 8.96796 5.48095 9.10039L6.25999 7.55921C6.35689 7.36752 6.32645 7.1382 6.18599 6.97803L5.72451 6.67371C4.97089 6.17675 4.89255 5.11002 5.56596 4.51052L9.00496 1.44899C9.49987 1.0084 10.0695 0.657751 10.6877 0.413171L10.7637 0.383102ZM5.4359 9.18952C5.21559 9.05377 5.00442 8.9019 4.78247 8.74227L4.78113 8.74131C4.67558 8.6654 4.56753 8.58769 4.45448 8.50877C4.0451 8.22298 3.5912 7.93866 3.05867 7.79051C2.6434 7.67498 2.12159 7.67932 1.73296 7.70435C1.60623 7.71251 1.48894 7.72324 1.38777 7.7341L1.34479 7.73871L0.793313 5.55675C0.746302 5.37074 0.555352 5.25688 0.366223 5.30365C0.177273 5.35037 0.0631834 5.53937 0.110146 5.72518L3.05553 17.3789C3.43 18.8605 4.77607 19.9005 6.32092 19.9005H15.6791C17.2239 19.9005 18.57 18.8605 18.9445 17.3789L21.8899 5.72518C21.9368 5.53937 21.8227 5.35037 21.6338 5.30365C21.4446 5.25688 21.2537 5.37074 21.2067 5.55675L20.4188 8.67404L20.3579 8.62189C20.2982 8.5709 20.2345 8.51852 20.1673 8.46606C19.7639 8.1514 19.1635 7.77749 18.5345 7.77749C17.9783 7.77749 17.3333 8.0279 16.8385 8.26527C16.6869 8.6393 16.5087 9.00282 16.3051 9.35303C16.344 9.32886 16.3947 9.29775 16.4555 9.26171C16.6069 9.17184 16.8185 9.05223 17.0596 8.93299C17.5592 8.68595 18.122 8.47294 18.5345 8.47294C18.9101 8.47294 19.3475 8.71279 19.7308 9.01181C19.9138 9.15456 20.0686 9.29818 20.1777 9.40633L20.2026 9.43109L20.2224 9.45106L18.2613 17.2105C17.965 18.383 16.9001 19.205 15.6791 19.205H6.32092C5.09991 19.205 4.03504 18.383 3.73869 17.2105L1.51691 8.41975L1.57482 8.41439C1.63858 8.40848 1.70707 8.40295 1.77877 8.39833C2.15486 8.37411 2.57489 8.37844 2.86777 8.45992C3.27944 8.57445 3.65229 8.8004 4.04808 9.07669C4.14055 9.14125 4.23597 9.20991 4.33367 9.28022C4.5822 9.45906 4.84593 9.64879 5.12021 9.81404L5.4359 9.18952ZM5.20611 9.86475L5.52137 9.24107C5.56231 9.2652 5.60363 9.28875 5.64548 9.31168C5.81559 9.40487 5.87669 9.61636 5.78281 9.78404C5.68876 9.95203 5.47437 10.0132 5.30396 9.91985C5.2712 9.90191 5.23859 9.88353 5.20611 9.86475ZM5.16115 9.9537C5.19266 9.97188 5.22432 9.9897 5.25611 10.0071C5.47399 10.1265 5.7487 10.0487 5.86968 9.83263C5.99084 9.61623 5.91149 9.34393 5.69332 9.22442C5.65051 9.20097 5.60825 9.17684 5.56636 9.15207L6.34884 7.60408C6.46534 7.37362 6.42711 7.09752 6.25591 6.90687L6.25716 6.90575L5.77933 6.59066C5.08011 6.12957 5.00773 5.14072 5.63217 4.58482L9.07117 1.52329C9.55734 1.09049 10.117 0.745991 10.7243 0.505689L10.8003 0.47562C11.8942 0.0428155 13.1025 -0.0183176 14.2353 0.301838L14.7188 0.438498C15.705 0.717189 16.547 1.35615 17.0745 2.22579C17.607 3.10372 17.7787 4.15023 17.5542 5.14959L17.1594 6.90683C17.0608 7.3458 16.9273 7.77562 16.7606 8.19239C16.7402 8.2023 16.72 8.21216 16.7002 8.22196C16.4362 8.35254 16.2061 8.48265 16.042 8.58003C15.9597 8.62885 15.8936 8.66975 15.8474 8.69878C15.8244 8.7133 15.8063 8.72488 15.7937 8.73302L15.779 8.74252L15.7747 8.7453L15.7727 8.74662C15.7395 8.76853 15.7101 8.7941 15.6848 8.82236C16.0445 8.17441 16.3097 7.47879 16.472 6.75618L16.8668 4.99894C17.0523 4.17317 16.9104 3.30849 16.4705 2.58321C16.0347 1.8648 15.3393 1.33721 14.5251 1.10712L14.0416 0.970463C13.059 0.692768 12.011 0.745786 11.0622 1.1212L10.9862 1.15127C10.4559 1.36109 9.96717 1.66191 9.5426 2.03988L6.1036 5.10141C5.82004 5.35384 5.85311 5.80309 6.17031 6.01227L6.47922 6.21597L8.45537 4.91282C9.04968 4.52091 9.71589 4.24795 10.4163 4.10938C11.3386 3.92693 12.1856 3.47854 12.8507 2.82063L13.2623 2.41358C13.3998 2.27754 13.623 2.27754 13.7605 2.41358C13.8978 2.54933 13.8978 2.76922 13.7605 2.90497L13.349 3.31203C12.5857 4.06711 11.6134 4.58184 10.5546 4.79129C9.94448 4.912 9.36413 5.14978 8.84635 5.49121L6.97592 6.72465L6.99433 6.76365C7.16368 7.12235 7.16509 7.54623 6.97883 7.91472L5.41149 11.0154C5.35422 11.1287 5.32437 11.2544 5.32437 11.3812C5.32437 11.6904 5.50102 11.972 5.78015 12.1101L5.85028 12.1448L9.19586 6.94444C9.30013 6.78237 9.51792 6.73427 9.68222 6.83769C9.84622 6.94092 9.89423 7.15566 9.79016 7.31742L6.31176 12.7242L6.3103 12.7352C6.20831 13.5012 6.98133 14.1091 7.72088 13.8172L7.73754 13.8106L10.6907 8.45516C10.7837 8.28659 10.9977 8.22404 11.1687 8.31631C11.3394 8.40843 11.4019 8.61953 11.3091 8.7878L8.43164 14.0059L8.47027 14.0311C9.11476 14.4524 10.0057 14.3212 10.4898 13.6826L10.6964 13.4102L12.6941 9.45986C12.7809 9.28815 12.9925 9.21806 13.1667 9.30425C13.3407 9.3903 13.4107 9.59909 13.3241 9.7705L11.4014 13.5742L11.422 13.5992C11.793 14.0501 12.5355 14.0254 12.8582 13.4933L15.5342 9.08181C15.5538 9.04949 15.5731 9.01705 15.5923 8.98447C15.5526 9.10916 15.5683 9.2499 15.6474 9.3672C15.7421 9.50783 15.9035 9.57793 16.0623 9.56437L13.4622 13.8508C12.9249 14.7367 11.7373 14.8416 11.0346 14.2061L10.9968 14.1719L10.9635 14.2105C10.1949 15.0997 8.85179 15.2216 7.93363 14.5055L7.91259 14.4891L7.88727 14.4975C6.73232 14.8823 5.56534 13.993 5.59705 12.8296L5.59792 12.7977L5.46488 12.7319C4.94704 12.4758 4.62026 11.9525 4.62026 11.3804C4.62026 11.1459 4.67546 10.9146 4.78151 10.7048L5.16115 9.9537ZM5.0752 9.90309C4.79456 9.73447 4.52611 9.5413 4.2768 9.3619L4.27562 9.36105C4.17777 9.29064 4.0829 9.22237 3.99108 9.15827C3.59721 8.88331 3.23577 8.66558 2.84108 8.55578C2.56535 8.47907 2.15958 8.47352 1.78517 8.49763C1.73574 8.50081 1.68784 8.50444 1.64197 8.50832L3.83521 17.1861C4.12024 18.3138 5.14485 19.1055 6.32092 19.1055H15.6791C16.8552 19.1055 17.8798 18.3138 18.1648 17.1861L20.1121 9.48141L20.1077 9.47699C20.0005 9.3708 19.8487 9.22998 19.6696 9.09025C19.2892 8.79348 18.8746 8.57245 18.5345 8.57245C18.1472 8.57245 17.6026 8.77548 17.1038 9.02217C16.8655 9.14001 16.6561 9.25833 16.5063 9.34726C16.4316 9.39161 16.3722 9.42834 16.332 9.45366C16.3119 9.46626 16.2967 9.47601 16.2868 9.48243M16.2868 9.48243L16.2758 9.48951L16.2736 9.49099M5.0752 9.90309L4.69266 10.6599C4.57959 10.8836 4.52069 11.131 4.52069 11.3812C4.52069 11.9915 4.86933 12.5484 5.42073 12.8211L5.49695 12.8588C5.48541 14.0673 6.69205 14.9821 7.89343 14.6001C8.83923 15.3204 10.203 15.2019 11.0057 14.3131C11.7559 14.9508 12.9851 14.8292 13.5474 13.9023L16.2868 9.48243M16.1319 9.44957L16.1382 9.43923C16.354 9.08351 16.5428 8.71325 16.7035 8.33151C16.4594 8.45378 16.2468 8.57421 16.0928 8.66559C16.0114 8.71391 15.946 8.75435 15.9005 8.78298C15.8889 8.79025 15.8786 8.79677 15.8697 8.80246L16.0643 9.09112L15.9817 9.14671L15.7883 8.85969C15.6594 8.9732 15.6317 9.16583 15.7299 9.3116C15.8193 9.4442 15.9854 9.49662 16.1319 9.44957ZM14.0145 1.06621C13.0529 0.794454 12.0273 0.846346 11.0988 1.21372L11.0228 1.24379C10.5033 1.44933 10.0246 1.74399 9.6088 2.11418L6.1698 5.17571C5.93523 5.38454 5.96233 5.75591 6.22513 5.92921L6.47922 6.09676L8.40055 4.82977C9.00567 4.43073 9.68393 4.15284 10.397 4.01177C11.3002 3.8331 12.1296 3.39401 12.7807 2.74991L13.1922 2.34285C13.3686 2.16844 13.6542 2.16844 13.8306 2.34285C14.0072 2.51755 14.0072 2.801 13.8306 2.9757L13.419 3.38276C12.6417 4.15164 11.6518 4.67568 10.574 4.8889C9.97644 5.00711 9.40814 5.23996 8.90117 5.57427L7.10222 6.76056C7.26639 7.13779 7.2613 7.57654 7.06768 7.95959L5.50034 11.0603C5.45008 11.1597 5.42393 11.2693 5.42393 11.3804C5.42393 11.6478 5.57471 11.893 5.81471 12.0161L9.11213 6.89062C9.24616 6.68229 9.5251 6.6212 9.73527 6.75349C9.94574 6.88597 10.0081 7.16259 9.87389 7.37123L6.40759 12.7592C6.3252 13.438 7.00642 13.9787 7.66777 13.731L10.6035 8.40713C10.7231 8.19027 10.9973 8.11079 11.216 8.22875C11.4349 8.34688 11.516 8.61866 11.3963 8.83583L8.56375 13.9724C9.16218 14.3358 9.96847 14.2055 10.4105 13.6225L10.6143 13.3537L12.6053 9.41498C12.717 9.194 12.9881 9.10491 13.2109 9.21507C13.4339 9.32537 13.5248 9.59409 13.4129 9.81537L11.5199 13.5604C11.8552 13.9348 12.4932 13.9031 12.7731 13.4418L15.449 9.03022C15.8804 8.31911 16.193 7.54389 16.3749 6.73438L16.7696 4.97714C16.9495 4.17653 16.812 3.33814 16.3854 2.6348C15.9627 1.93808 15.2881 1.42616 14.4981 1.20287L14.0145 1.06621Z" fill="#2C2C2C"/>
</svg>
