<svg width="51" height="58" viewBox="0 0 51 58" fill="none" xmlns="http://www.w3.org/2000/svg">
<path d="M44.6965 14.7621C47.686 16.1554 48.0931 18.9142 48.0931 18.9142C46.9999 16.2211 41.9523 15.0238 41.9523 15.0238C45.4066 17.2123 45.046 19.4846 45.046 19.4846C43.871 16.2392 39.5504 15.2525 39.5504 15.2525C42.6207 17.1975 43.0279 19.9569 43.0279 19.9569C40.3182 15.7391 36.1602 15.8564 36.1602 15.8564C38.7657 17.0067 39.3933 18.9052 39.3933 18.9052C36.9681 16.6187 33.6797 16.5466 33.1627 16.439C36.7324 17.24 39.3348 20.8695 39.3348 20.8695C44.5491 28.5692 39.7611 33.7543 39.5383 33.9934C41.4626 28.2199 39.2186 24.7973 39.2186 24.7973C39.4045 28.4165 37.59 30.2686 37.59 30.2686C38.1967 25.4211 36.1947 22.0868 35.9959 21.7755C36.8366 23.9054 35.6481 26.5366 35.6481 26.5366C35.6825 22.0572 33.6011 19.7378 33.6011 19.7378C35.1391 21.829 33.9498 24.4609 33.9498 24.4609C33.5498 21.7504 32.1914 20.4441 31.7113 20.06C33.3799 26.6423 36.4936 43.2366 29.4175 55.3668C33.1836 55.8643 37.2558 56.7008 41.5893 58H1.16372C1.16372 58 4.77589 56.3618 11.1659 55.4139C7.88715 48.9979 9.46682 40.6234 10.3276 37.2272C10.0711 37.4328 9.3434 38.132 9.12941 39.5833C9.12941 39.5833 8.49306 38.1745 9.31615 37.0551C9.31615 37.0551 8.20132 38.297 8.22056 40.6949C8.22056 40.6949 7.5842 39.2862 8.03382 38.1462C7.92723 38.3124 6.85568 40.0975 7.18027 42.6927C7.18027 42.6927 6.2089 41.7015 6.30828 39.7637C6.30828 39.7637 5.10689 41.5959 6.13676 44.6866C6.01815 44.5583 3.45509 41.7827 6.24577 37.6609C6.24577 37.6609 7.6387 35.7179 9.54938 35.2894C9.27287 35.3467 7.51207 35.3854 6.21451 36.6098C6.21451 36.6098 6.55032 35.5936 7.94566 34.9775C7.94566 34.9775 5.72001 34.915 4.26937 37.1724C4.26937 37.1724 4.48737 35.6954 6.13116 34.654C6.13116 34.654 3.81815 35.1824 3.189 36.9192C3.189 36.9192 2.99585 35.7025 4.84482 34.5309C4.84482 34.5309 2.1423 35.1715 1.55724 36.6137C1.55724 36.6137 1.77523 35.1367 3.37494 34.391C3.37494 34.391 1.33283 34.3459 0 37.0642C0 37.0642 0.0248468 34.3711 3.54886 33.2091C6.99032 32.0756 9.58464 34.2879 9.70325 34.3923C9.672 34.2995 9.12139 32.8334 7.02959 32.343C7.02959 32.343 7.64592 31.9525 9.34901 33.0107C9.26166 32.9217 8.26303 31.562 5.91877 31.0387C5.91877 31.0387 7.01276 30.8872 7.83746 31.1225C6.94143 30.6372 5.55251 30.1055 4.76387 30.0301C4.76387 30.0301 5.54209 29.8046 6.96788 30.2402C6.96788 30.2402 5.30565 28.8837 2.36671 28.6033C2.36671 28.6033 4.65808 28.2231 6.40766 28.9887C6.40766 28.9887 6.2674 28.6755 4.70135 27.9273C4.70135 27.9273 9.6167 28.6961 10.887 32.711C10.887 32.711 10.8686 30.313 9.20635 28.9565C9.30493 29.0197 10.5889 29.6873 11.3302 30.9201C11.2092 30.7197 10.9776 29.5745 9.0132 27.7398C9.0132 27.7398 10.4751 28.4403 10.6995 28.767C10.5552 28.5202 9.70967 27.1527 8.45298 26.4877C8.45298 26.4877 14.3333 28.2438 12.0042 34.0031C12.1341 33.7518 14.3084 29.724 20.0869 29.6944C20.0869 29.6944 18.1827 30.1055 16.95 30.8808C17.1544 30.7835 19.0819 29.9161 21.4687 30.4252C21.4687 30.4252 17.7114 30.6655 15.5707 32.555C15.6661 32.5131 17.2257 31.8172 19.0034 31.9866C19.0034 31.9866 16.3009 32.6272 14.6138 33.9644C14.6138 33.9644 15.8032 33.4785 16.8611 33.8794C16.8611 33.8794 15.1644 34.0173 13.4773 35.3538C13.4773 35.3538 20.2641 34.8028 20.6688 39.6342C20.6688 39.6342 20.1086 38.3827 19.4177 38.0173C19.4698 38.094 20.3017 39.5994 19.76 40.7458C19.76 40.7458 19.6974 38.643 17.9919 37.5817C18.0889 37.6809 18.9633 38.5728 18.7886 39.7547C18.7886 39.7547 18.2716 38.208 16.716 37.4689C16.8026 37.5642 17.5047 38.3588 17.3412 39.4666C17.3412 39.4666 16.8731 37.6429 15.3046 37.0345C15.4112 37.0957 15.8745 37.4154 16.3233 38.7674C16.2359 38.6785 15.4209 37.3361 13.0766 36.8135C13.0766 36.8135 17.7804 40.2548 13.729 46.3022C13.7859 46.1701 14.5401 44.3637 14.1289 42.3054C14.1289 42.3054 13.9534 44.086 12.5516 45.447C12.6133 45.3568 13.717 43.1651 13.4813 41.6448C13.4813 41.6448 12.8522 43.3822 12.3978 43.9377C12.3978 43.9377 12.9644 40.0982 12.4042 38.846C12.4042 38.846 12.2295 40.0273 11.7318 40.8786C11.7318 40.8786 12.078 38.5309 11.1619 37.2414C9.03885 46.1836 11.8656 52.2162 13.8067 55.0813C16.805 54.7739 20.2793 54.6438 24.1672 54.8661C27.6647 50.3028 34.5252 38.4955 30.1533 20.0865C28.4414 22.4947 29.0881 26.8808 29.0881 26.8808C28.1576 25.2909 27.8322 23.0837 27.8322 23.0837C26.7855 25.4218 27.8443 32.595 27.8443 32.595C26.9955 31.5568 25.8206 28.3121 25.8206 28.3121C25.3814 31.1521 27.4419 35.2469 27.5573 35.4151C24.939 32.8727 24.6104 29.5468 24.6104 29.5468C23.8418 33.3915 25.2507 36.7651 25.3573 37.0126C17.7892 25.7156 26.5764 19.2874 26.5764 19.2874C22.1972 20.265 20.6744 22.7712 20.5109 22.9381C21.3492 20.4132 22.214 19.8158 22.4136 19.7017C19.4843 20.8372 18.6091 24.2444 18.6091 24.2444C18.3037 22.1751 19.6157 20.6903 19.7776 20.5124C16.8707 21.8922 15.9049 24.7818 15.9049 24.7818C15.5795 22.5746 17.2121 20.9081 17.3932 20.7232C14.2067 22.7061 14.0904 26.6339 14.0904 26.6339C13.0782 24.4925 14.633 21.6808 14.73 21.5371C13.4389 22.2196 12.3922 24.5576 12.3922 24.5576C13.1479 15.5329 25.8254 16.5614 25.8254 16.5614C22.6733 14.0642 19.5043 13.8071 19.5043 13.8071C21.4815 13.0589 23.7031 13.9662 23.7031 13.9662C20.551 11.4691 15.5034 10.2723 15.5034 10.2723C18.8247 9.95527 21.7372 11.2557 21.9159 11.3337C17.9158 7.80414 10.8974 7.35496 10.8974 7.35496C15.3567 6.40377 18.9569 8.02389 19.3384 8.20562C17.0374 6.75886 13.4797 5.99005 13.4797 5.99005C24.2738 6.04547 28.3348 13.5699 28.5776 14.0397C24.2281 3.28019 35.2121 0 35.2121 0C32.8638 1.24183 31.2849 3.79702 31.0148 4.2578C31.434 3.64687 34.1654 2.33802 34.1654 2.33802C30.4955 5.76578 30.0627 7.90402 29.8367 8.27909C31.2224 5.97587 33.6204 4.72888 33.8047 4.6103C30.6991 7.14488 30.6646 11.6244 30.6646 11.6244C33.0369 4.1244 42.2192 2.68859 42.2192 2.68859C39.2939 4.08702 39.0326 4.67153 39.0326 4.67153C42.301 3.24088 46.5808 3.95169 46.5808 3.95169C41.0908 4.47562 37.9859 7.00954 37.9859 7.00954C40.6492 6.19562 42.103 6.61708 42.103 6.61708C40.6307 6.75757 38.0356 7.75065 36.3622 8.65737C37.9018 8.21786 39.9455 8.50142 39.9455 8.50142C35.5663 9.47903 33.7005 12.0181 33.537 12.1844C36.718 10.2079 37.8689 10.9374 37.8689 10.9374C33.961 11.8531 32.9319 14.592 32.8734 14.7653C33.0954 14.5707 37.941 10.438 44.3703 12.5549C50.9535 14.7247 51 19.7559 51 19.7559C48.5115 14.6783 44.6965 14.7621 44.6965 14.7621Z" fill="white" fill-opacity="0.17"/>
</svg>
