<svg width="64" height="73" viewBox="0 0 64 73" fill="none" xmlns="http://www.w3.org/2000/svg">
<path d="M7.91024 18.5799C4.15879 20.3335 3.64786 23.8058 3.64786 23.8058C5.01971 20.4163 11.3539 18.9092 11.3539 18.9092C7.01914 21.6637 7.47173 24.5237 7.47173 24.5237C8.94616 20.439 14.3682 19.1972 14.3682 19.1972C10.5151 21.6451 10.0042 25.1182 10.0042 25.1182C13.4047 19.8095 18.6225 19.9572 18.6225 19.9572C15.3528 21.405 14.5653 23.7945 14.5653 23.7945C17.6087 20.9167 21.7353 20.8259 22.384 20.6904C17.9044 21.6986 14.6387 26.2667 14.6387 26.2667C8.0953 35.9578 14.1037 42.4839 14.3833 42.7848C11.9684 35.5182 14.7846 31.2104 14.7846 31.2104C14.5512 35.7655 16.8282 38.0967 16.8282 38.0967C16.0669 31.9955 18.5793 27.7989 18.8287 27.4071C17.7736 30.0878 19.2652 33.3996 19.2652 33.3996C19.2219 27.7616 21.8339 24.8424 21.8339 24.8424C19.9038 27.4745 21.3964 30.787 21.3964 30.787C21.8982 27.3755 23.603 25.7314 24.2054 25.248C22.1115 33.5326 18.2041 54.4185 27.0839 69.6858C22.3579 70.312 17.2476 71.3648 11.8095 73H62.5396C62.5396 73 58.0067 70.9382 49.9879 69.745C54.1024 61.6697 52.1201 51.1294 51.0399 46.8549C51.3617 47.1137 52.2749 47.9937 52.5435 49.8203C52.5435 49.8203 53.342 48.0473 52.3091 46.6384C52.3091 46.6384 53.7081 48.2014 53.684 51.2195C53.684 51.2195 54.4826 49.4464 53.9183 48.0116C54.0521 48.2208 55.3968 50.4676 54.9895 53.7339C54.9895 53.7339 56.2084 52.4864 56.0837 50.0474C56.0837 50.0474 57.5914 52.3534 56.299 56.2434C56.4478 56.082 59.6642 52.5886 56.1622 47.4008C56.1622 47.4008 54.4142 44.9553 52.0165 44.416C52.3635 44.4881 54.5731 44.5368 56.2014 46.0779C56.2014 46.0779 55.78 44.7988 54.029 44.0234C54.029 44.0234 56.822 43.9447 58.6424 46.786C58.6424 46.786 58.3688 44.9269 56.306 43.6162C56.306 43.6162 59.2086 44.2813 59.9981 46.4672C59.9981 46.4672 60.2405 44.9359 57.9202 43.4613C57.9202 43.4613 61.3116 44.2675 62.0458 46.0828C62.0458 46.0828 61.7723 44.2237 59.7648 43.2853C59.7648 43.2853 62.3274 43.2285 64 46.6497C64 46.6497 63.9688 43.2601 59.5465 41.7977C55.2278 40.371 51.9722 43.1555 51.8234 43.2869C51.8626 43.1701 52.5535 41.3248 55.1786 40.7076C55.1786 40.7076 54.4051 40.2161 52.2679 41.5479C52.3775 41.436 53.6307 39.7245 56.5725 39.0659C56.5725 39.0659 55.1997 38.8753 54.1648 39.1714C55.2892 38.5606 57.0322 37.8914 58.0218 37.7965C58.0218 37.7965 57.0452 37.5127 55.256 38.061C55.256 38.061 57.3419 36.3536 61.03 36.0008C61.03 36.0008 58.1546 35.5222 55.959 36.4858C55.959 36.4858 56.135 36.0916 58.1003 35.1499C58.1003 35.1499 51.932 36.1176 50.3379 41.1707C50.3379 41.1707 50.361 38.1526 52.4469 36.4452C52.3232 36.5247 50.712 37.365 49.7817 38.9167C49.9336 38.6644 50.2242 37.2231 52.6893 34.9139C52.6893 34.9139 50.8548 35.7956 50.5732 36.2068C50.7543 35.8961 51.8153 34.175 53.3923 33.3379C53.3923 33.3379 46.0131 35.5482 48.9359 42.797C48.7729 42.4807 46.0443 37.4113 38.7929 37.374C38.7929 37.374 41.1825 37.8914 42.7294 38.8672C42.4729 38.7447 40.0541 37.653 37.0589 38.2938C37.0589 38.2938 41.7739 38.5963 44.4603 40.9744C44.3406 40.9217 42.3834 40.0457 40.1526 40.2591C40.1526 40.2591 43.544 41.0653 45.6611 42.7483C45.6611 42.7483 44.1686 42.1368 42.841 42.6413C42.841 42.6413 44.9702 42.8148 47.0873 44.4971C47.0873 44.4971 38.5706 43.8036 38.0627 49.8844C38.0627 49.8844 38.7657 48.3092 39.6327 47.8493C39.5673 47.9459 38.5233 49.8406 39.2032 51.2836C39.2032 51.2836 39.2816 48.6369 41.4219 47.301C41.3002 47.426 40.2029 48.5485 40.4222 50.0361C40.4222 50.0361 41.0709 48.0894 43.023 47.1591C42.9144 47.2791 42.0334 48.2792 42.2386 49.6735C42.2386 49.6735 42.8259 47.3781 44.7942 46.6124C44.6604 46.6895 44.0791 47.0918 43.5159 48.7935C43.6255 48.6815 44.6483 46.992 47.5902 46.3342C47.5902 46.3342 41.6874 50.6655 46.7715 58.2769C46.7001 58.1106 45.7537 55.8371 46.2696 53.2464C46.2696 53.2464 46.4899 55.4875 48.2489 57.2005C48.1715 57.087 46.7866 54.3284 47.0823 52.415C47.0823 52.415 47.8718 54.6018 48.442 55.3009C48.442 55.3009 47.731 50.4684 48.434 48.8924C48.434 48.8924 48.6532 50.3792 49.2778 51.4506C49.2778 51.4506 48.8433 48.4958 49.9929 46.8728C52.6571 58.1276 49.1098 65.7204 46.6739 69.3265C42.9114 68.9396 38.5515 68.7758 33.6726 69.0556C29.2835 63.3122 20.6742 48.4512 26.1606 25.2812C28.3089 28.3123 27.4973 33.8327 27.4973 33.8327C28.6649 31.8317 29.0733 29.0537 29.0733 29.0537C30.3868 31.9964 29.0582 41.0247 29.0582 41.0247C30.1233 39.718 31.5977 35.6341 31.5977 35.6341C32.1489 39.2087 29.5631 44.3624 29.4182 44.5741C32.704 41.3743 33.1164 37.1882 33.1164 37.1882C34.0809 42.0273 32.3128 46.2734 32.179 46.5848C41.6763 32.3662 30.6493 24.2755 30.6493 24.2755C36.1447 25.5059 38.0556 28.6603 38.2608 28.8704C37.2088 25.6925 36.1236 24.9406 35.8732 24.797C39.5492 26.2262 40.6475 30.5145 40.6475 30.5145C41.0306 27.91 39.3842 26.0412 39.1811 25.8174C42.8289 27.554 44.0409 31.1909 44.0409 31.1909C44.4492 28.4129 42.4005 26.3154 42.1732 26.0826C46.172 28.5784 46.3179 33.522 46.3179 33.522C47.5881 30.8267 45.637 27.2879 45.5153 27.107C47.1356 27.966 48.4491 30.9087 48.4491 30.9087C47.5006 19.55 31.5917 20.8445 31.5917 20.8445C35.5473 17.7015 39.524 17.3779 39.524 17.3779C37.0428 16.4362 34.2549 17.5782 34.2549 17.5782C38.2105 14.4352 44.5447 12.929 44.5447 12.929C40.3769 12.5299 36.722 14.1667 36.4977 14.2649C41.5174 9.82245 50.3248 9.25711 50.3248 9.25711C44.7288 8.05992 40.211 10.099 39.7322 10.3278C42.6197 8.50684 47.0843 7.53919 47.0843 7.53919C33.5388 7.60895 28.4427 17.0794 28.1379 17.6707C33.5961 4.12851 19.8123 0 19.8123 0C22.7592 1.56299 24.7405 4.77901 25.0794 5.35895C24.5534 4.59003 21.1258 2.94268 21.1258 2.94268C25.7312 7.25693 26.2743 9.94817 26.5579 10.4202C24.8189 7.52135 21.8097 5.95187 21.5784 5.80263C25.4757 8.99269 25.5189 14.6307 25.5189 14.6307C22.5419 5.19105 11.019 3.38392 11.019 3.38392C14.69 5.14401 15.0179 5.87968 15.0179 5.87968C10.9164 4.07903 5.54572 4.97368 5.54572 4.97368C12.4351 5.6331 16.3314 8.82236 16.3314 8.82236C12.9893 7.79794 11.1649 8.3284 11.1649 8.3284C13.0124 8.50522 16.269 9.75513 18.3691 10.8963C16.437 10.3432 13.8723 10.7001 13.8723 10.7001C19.3678 11.9305 21.7092 15.1262 21.9143 15.3355C17.9225 12.8479 16.4782 13.766 16.4782 13.766C21.3823 14.9186 22.6737 18.3658 22.7471 18.584C22.4685 18.339 16.3877 13.1374 8.31958 15.8019C0.0583382 18.5329 0 24.8651 0 24.8651C3.12286 18.4745 7.91024 18.5799 7.91024 18.5799Z" fill="white" fill-opacity="0.17"/>
</svg>
