<svg width="36" height="36" viewBox="0 0 36 36" fill="none" xmlns="http://www.w3.org/2000/svg">
<path opacity="0.4" d="M8.70615 2.58245L16.4234 14.7892L11.612 1.17031L17.0275 14.56L14.7231 0.300168L17.6628 14.4425L17.9394 0L18.3089 14.4404L21.1576 0.279451L18.9449 14.5539L24.2743 1.12954L19.5505 14.7791L27.1891 2.52293L20.1062 15.109L29.8086 4.41486L20.5941 15.5328L32.0484 6.74451L20.9985 16.0371L33.8366 9.43701L21.3065 16.6055L35.1158 12.4058L21.5081 17.2198L35.8447 15.5555L21.5969 17.8603L36 18.7848L21.57 18.5063L35.5767 21.99L21.4282 19.1372L34.5884 25.068L21.1762 19.7326L33.0668 27.92L20.8221 20.2734L31.0609 30.4542L20.3771 20.7422L28.6351 32.5892L19.8556 21.124L25.8674 34.2563L19.2745 21.4064L22.8468 35.4021L18.6523 21.5804L19.6703 35.9896L18.009 21.6404L16.44 36L17.3654 21.5845L13.2598 35.4329L16.742 21.4145L10.2318 34.3067L16.1591 21.1359L7.4535 32.6574L15.6352 20.7575L5.01404 30.538L15.1872 20.2915L2.99187 28.0168L14.8296 19.753L1.452 25.1747L14.5737 19.1593L0.443908 22.1031L14.4279 18.5293L0 18.9007L14.3969 17.8835L0.134544 15.6705L14.4815 17.2424L0.843215 12.5162L14.6792 16.6268L2.10323 9.53918L14.9835 16.0564L3.87411 6.83523L15.3847 15.5496L6.09891 4.49121L15.8699 15.1226L8.70615 2.58245Z" fill="url(#paint0_diamond_101_11461)"/>
<defs>
<radialGradient id="paint0_diamond_101_11461" cx="0" cy="0" r="1" gradientUnits="userSpaceOnUse" gradientTransform="translate(17.9973 18.0331) rotate(58.9804) scale(18.0297 18.0224)">
<stop stop-color="#FF55CF" stop-opacity="0.35"/>
<stop offset="1" stop-color="#FF55CF"/>
</radialGradient>
</defs>
</svg>
