<svg width="26" height="26" viewBox="0 0 26 26" fill="none" xmlns="http://www.w3.org/2000/svg">
<path opacity="0.4" d="M6.70993 2.4449L12.0637 10.9059L8.72585 1.46608L12.4828 10.7471L10.8841 0.862948L12.9236 10.6656L13.1154 0.654888L13.3717 10.6642L15.348 0.848588L13.813 10.7428L17.5102 1.43782L14.2331 10.8989L19.5323 2.40364L14.6186 11.1276L21.3496 3.71502L14.9571 11.4214L22.9034 5.3298L15.2376 11.7709L24.144 7.19608L15.4513 12.1649L25.0314 9.25388L15.5912 12.5907L25.5371 11.4371L15.6528 13.0346L25.6448 13.6755L15.6341 13.4824L25.3511 15.8971L15.5358 13.9197L24.6655 18.0306L15.3609 14.3324L23.6099 20.0074L15.1152 14.7073L22.2183 21.764L14.8066 15.0322L20.5355 23.2438L14.4448 15.2968L18.6154 24.3994L14.0416 15.4926L16.5199 25.1936L13.61 15.6132L14.3162 25.6008L13.1637 15.6548L12.0752 25.608L12.7172 15.6161L9.86898 25.215L12.2848 15.4982L7.76837 24.4343L11.8803 15.3051L5.84092 23.2911L11.5169 15.0428L4.14856 21.8221L11.2061 14.7198L2.7457 20.0746L10.958 14.3466L1.67743 18.1046L10.7805 13.935L0.978071 15.9755L10.6794 13.4984L0.670113 13.7558L10.6578 13.0507L0.763452 11.5168L10.7166 12.6064L1.25509 9.33038L10.8537 12.1797L2.12921 7.26691L11.0648 11.7843L3.35774 5.39268L11.3431 11.433L4.90118 3.76794L11.6797 11.137L6.70993 2.4449Z" fill="url(#paint0_diamond_101_11446)"/>
<defs>
<radialGradient id="paint0_diamond_101_11446" cx="0" cy="0" r="1" gradientUnits="userSpaceOnUse" gradientTransform="translate(13.1557 13.1548) rotate(58.9585) scale(12.5)">
<stop stop-color="#FF55CF" stop-opacity="0.35"/>
<stop offset="1" stop-color="#FF55CF"/>
</radialGradient>
</defs>
</svg>
