<svg width="40" height="40" viewBox="0 0 40 40" fill="none" xmlns="http://www.w3.org/2000/svg">
<path opacity="0.8" d="M20 0L20.2091 18.011L24.1582 0.437048L20.618 18.0979L28.1347 1.72909L21 18.268L31.7557 3.81966L21.3383 18.5137L34.8629 6.61739L21.618 18.8244L37.3205 10L21.8271 19.1865L39.0211 13.8197L21.9563 19.5842L39.8904 17.9094L22 20L39.8904 22.0906L21.9563 20.4158L39.0211 26.1803L21.8271 20.8135L37.3205 30L21.618 21.1756L34.8629 33.3826L21.3383 21.4863L31.7557 36.1803L21 21.732L28.1347 38.2709L20.618 21.9021L24.1582 39.563L20.2091 21.989L20 40L19.7909 21.989L15.8418 39.563L19.382 21.9021L11.8653 38.2709L19 21.732L8.2443 36.1803L18.6617 21.4863L5.1371 33.3826L18.382 21.1756L2.67949 30L18.1729 20.8135L0.97887 26.1803L18.0437 20.4158L0.109562 22.0906L18 20L0.109562 17.9094L18.0437 19.5842L0.97887 13.8197L18.1729 19.1865L2.67949 10L18.382 18.8244L5.1371 6.61739L18.6617 18.5137L8.2443 3.81966L19 18.268L11.8653 1.72909L19.382 18.0979L15.8418 0.437048L19.7909 18.011L20 0Z" fill="url(#paint0_linear_101_11460)"/>
<defs>
<linearGradient id="paint0_linear_101_11460" x1="-1.03752e-07" y1="20.2817" x2="40" y2="20.2817" gradientUnits="userSpaceOnUse">
<stop stop-color="#21A5B5"/>
<stop offset="1" stop-color="#71B2B4"/>
</linearGradient>
</defs>
</svg>
