<svg width="213" height="22" viewBox="0 0 213 22" fill="none" xmlns="http://www.w3.org/2000/svg">
<path d="M21.3676 2.31482L18.6443 18.8951H22.9387L25.6621 2.31482H21.3676Z" fill="#0072FF"/>
<path d="M46.1917 2.31482C45.1443 2.31482 44.4111 2.62963 43.9921 3.67901L37.6028 19H42.1067C42.1067 19 42.8399 16.9012 43.0494 16.4815C43.5731 16.4815 47.8676 16.4815 48.496 16.4815C48.6008 17.1111 49.0198 19 49.0198 19H53L49.5435 2.31482H46.1917ZM44.2016 13.0185C44.5158 12.0741 45.8775 8.40123 45.8775 8.40123C45.8775 8.40123 46.1917 7.45679 46.4012 6.82716L46.7154 8.2963C46.7154 8.2963 47.5534 12.284 47.7628 13.1235H44.2016V13.0185Z" fill="#0072FF"/>
<path d="M34.251 9.03086C32.7846 8.2963 31.8419 7.77161 31.8419 6.9321C31.8419 6.19753 32.5751 5.46296 34.251 5.46296C35.6127 5.46296 36.6601 5.77778 37.498 6.09259L37.917 6.30247L38.5455 2.73457C37.7075 2.41975 36.3458 2 34.67 2C30.4802 2 27.4427 4.30864 27.4427 7.45679C27.4427 9.87037 29.5376 11.2346 31.2134 11.9691C32.8893 12.8086 33.413 13.3333 33.413 14.0679C33.413 15.2222 32.0514 15.642 30.7945 15.642C29.1186 15.642 28.1759 15.4321 26.7095 14.8025L26.1858 14.4877L25.5573 18.1605C26.6047 18.5802 28.3854 19 30.3755 19C34.8795 19 37.8123 16.7963 37.8123 13.3333C37.917 11.6543 36.7648 10.1852 34.251 9.03086Z" fill="#0072FF"/>
<path d="M15.083 2.31482L10.8933 13.6482L10.4743 11.3395L9.00791 3.67901C8.79842 2.62963 7.96047 2.31482 7.01779 2.31482H0.209486C0.104743 2.31482 0.104743 2.41975 0 2.41975C0 2.52469 3.98002e-07 2.62963 0.104743 2.62963C1.15217 2.94444 2.09486 3.25926 2.93281 3.67901C3.87549 4.09877 4.50395 4.93827 4.81818 5.88272L8.2747 18.8951H12.7787L19.4822 2.31482H15.083Z" fill="#0072FF"/>
<path fill-rule="evenodd" clip-rule="evenodd" d="M96.0001 11C96.0001 16.5228 91.4311 21 85.795 21C80.1588 21 75.5898 16.5228 75.5898 11C75.5898 5.47715 80.1588 1 85.795 1C91.4311 1 96.0001 5.47715 96.0001 11Z" fill="#F79F1A"/>
<path fill-rule="evenodd" clip-rule="evenodd" d="M83.4103 11C83.4103 16.5228 78.8413 21 73.2051 21C67.569 21 63 16.5228 63 11C63 5.47715 67.569 1 73.2051 1C78.8413 1 83.4103 5.47715 83.4103 11Z" fill="#EA001B"/>
<path fill-rule="evenodd" clip-rule="evenodd" d="M79.4994 3.12817C77.1183 4.95885 75.5898 7.80361 75.5898 10.9993C75.5898 14.195 77.1183 17.0419 79.4994 18.8726C81.8805 17.0419 83.409 14.195 83.409 10.9993C83.409 7.80361 81.8805 4.95885 79.4994 3.12817Z" fill="#FF5F01"/>
<g clip-path="url(#clip0_101_2335)">
<path d="M129.176 10.7705V16.6332H127.366V2.15503H132.165C132.738 2.14273 133.308 2.24715 133.841 2.46228C134.375 2.6774 134.861 2.99897 135.273 3.40842C135.689 3.79301 136.02 4.26467 136.244 4.79169C136.468 5.31872 136.58 5.88891 136.571 6.46393C136.583 7.04202 136.473 7.61593 136.249 8.14631C136.025 8.6767 135.692 9.15102 135.273 9.53676C134.434 10.3593 133.398 10.7701 132.165 10.7694H129.176V10.7705ZM129.176 3.9375V8.99151H132.21C132.543 9.00164 132.874 8.9403 133.182 8.8114C133.491 8.6825 133.769 8.48888 134.001 8.24294C134.231 8.01298 134.414 7.73793 134.539 7.43405C134.664 7.13017 134.728 6.80363 134.728 6.47374C134.728 6.14386 134.664 5.81732 134.539 5.51344C134.414 5.20956 134.231 4.93451 134.001 4.70455C133.772 4.45342 133.495 4.25506 133.186 4.12262C132.877 3.99018 132.545 3.92669 132.21 3.93635H129.176V3.9375Z" fill="#5F6368"/>
<path d="M140.74 6.4043C142.077 6.4043 143.133 6.77165 143.907 7.50636C144.681 8.24107 145.068 9.2484 145.067 10.5284V16.6336H143.336V15.2589H143.257C142.508 16.391 141.512 16.9571 140.268 16.9571C139.206 16.9571 138.318 16.6336 137.603 15.9867C137.26 15.6898 136.986 15.3179 136.8 14.8983C136.615 14.4786 136.523 14.0216 136.531 13.5608C136.531 12.5357 136.908 11.7205 137.661 11.1152C138.415 10.5099 139.422 10.2064 140.68 10.2049C141.755 10.2049 142.64 10.4071 143.335 10.8114V10.3863C143.337 10.0721 143.271 9.76135 143.142 9.47663C143.013 9.19191 142.823 8.94032 142.588 8.74011C142.109 8.29638 141.485 8.05426 140.841 8.06201C139.83 8.06201 139.03 8.50022 138.441 9.37663L136.848 8.34504C137.724 7.05121 139.022 6.4043 140.74 6.4043ZM138.399 13.6012C138.398 13.8379 138.451 14.0715 138.556 14.2825C138.66 14.4935 138.812 14.6758 138.999 14.8142C139.399 15.1377 139.896 15.3091 140.405 15.2993C141.169 15.298 141.9 14.9856 142.44 14.4306C143.04 13.8507 143.34 13.1703 143.34 12.3894C142.775 11.9273 141.989 11.6963 140.979 11.6963C140.244 11.6963 139.631 11.8784 139.141 12.2427C138.645 12.6123 138.399 13.0617 138.399 13.6012V13.6012Z" fill="#5F6368"/>
<path d="M155.003 6.72705L148.961 20.9996H147.093L149.335 16.0056L145.362 6.72705H147.329L150.201 13.8431H150.24L153.033 6.72705H155.003Z" fill="#5F6368"/>
<path d="M121.863 9.50713C121.863 8.94034 121.817 8.37452 121.723 7.81592H114.092V11.0193H118.463C118.373 11.5309 118.184 12.0186 117.906 12.453C117.628 12.8874 117.268 13.2595 116.847 13.5469V15.6262H119.455C120.983 14.1788 121.863 12.0382 121.863 9.50713Z" fill="#4285F4"/>
<path d="M114.093 17.6355C116.276 17.6355 118.115 16.8985 119.456 15.6278L116.847 13.5484C116.121 14.0544 115.186 14.3432 114.093 14.3432C111.982 14.3432 110.19 12.8807 109.55 10.9099H106.862V13.0528C107.536 14.4304 108.569 15.5884 109.845 16.3976C111.122 17.2069 112.593 17.6354 114.093 17.6355V17.6355Z" fill="#34A853"/>
<path d="M109.549 10.9089C109.21 9.87621 109.21 8.75787 109.549 7.72517V5.58228H106.862C106.295 6.74112 106 8.0201 106 9.31704C106 10.614 106.295 11.893 106.862 13.0518L109.549 10.9089Z" fill="#FBBC04"/>
<path d="M114.093 4.29214C115.247 4.27276 116.362 4.72092 117.197 5.53975L119.507 3.16582C118.042 1.75194 116.102 0.975694 114.093 0.999813C112.593 0.999884 111.122 1.42846 109.845 2.23768C108.569 3.04691 107.536 4.20494 106.862 5.5825L109.55 7.7254C110.19 5.75462 111.982 4.29214 114.093 4.29214Z" fill="#EA4335"/>
</g>
<path d="M173.771 3.5785C173.208 4.25404 172.308 4.78687 171.408 4.71075C171.295 3.79734 171.736 2.82683 172.252 2.2274C172.814 1.53283 173.799 1.03806 174.596 1C174.689 1.95147 174.324 2.88392 173.771 3.5785ZM174.586 4.89153C173.283 4.81541 172.167 5.6432 171.548 5.6432C170.92 5.6432 169.973 4.92959 168.942 4.94862C167.601 4.96765 166.354 5.73834 165.67 6.96575C164.263 9.42055 165.304 13.0552 166.663 15.0533C167.329 16.0428 168.126 17.1275 169.176 17.0894C170.17 17.0514 170.564 16.4329 171.764 16.4329C172.974 16.4329 173.32 17.0894 174.371 17.0704C175.458 17.0514 176.143 16.0809 176.808 15.0913C177.568 13.9686 177.877 12.8744 177.896 12.8173C177.877 12.7983 175.796 11.9895 175.777 9.55376C175.758 7.5176 177.418 6.5471 177.493 6.49001C176.555 5.08183 175.093 4.92959 174.586 4.89153V4.89153ZM182.115 2.13226V16.9657H184.384V11.8944H187.525C190.394 11.8944 192.41 9.89629 192.41 7.00381C192.41 4.11132 190.432 2.13226 187.6 2.13226H182.115ZM184.384 4.07326H187C188.969 4.07326 190.094 5.13892 190.094 7.01332C190.094 8.88773 188.969 9.96289 186.991 9.96289H184.384V4.07326ZM196.554 17.0799C197.98 17.0799 199.302 16.3473 199.902 15.1865H199.949V16.9657H202.049V9.5823C202.049 7.44148 200.361 6.06185 197.764 6.06185C195.354 6.06185 193.573 7.46051 193.507 9.38249H195.551C195.72 8.46908 196.554 7.86965 197.698 7.86965C199.086 7.86965 199.864 8.52617 199.864 9.73454V10.5528L197.033 10.7241C194.398 10.8858 192.973 11.98 192.973 13.883C192.973 15.8049 194.445 17.0799 196.554 17.0799V17.0799ZM197.164 15.3197C195.954 15.3197 195.185 14.7298 195.185 13.8259C195.185 12.8934 195.926 12.3511 197.342 12.2655L199.864 12.1037V12.941C199.864 14.3302 198.701 15.3197 197.164 15.3197V15.3197ZM204.852 21C207.065 21 208.106 20.1437 209.015 17.5461L213 6.20457H210.693L208.021 14.9677H207.974L205.302 6.20457H202.93L206.774 17.0038L206.568 17.6603C206.221 18.7736 205.659 19.2017 204.655 19.2017C204.477 19.2017 204.13 19.1827 203.99 19.1637V20.9429C204.121 20.981 204.683 21 204.852 21V21Z" fill="black"/>
<defs>
<clipPath id="clip0_101_2335">
<rect width="49" height="20" fill="white" transform="translate(106 1)"/>
</clipPath>
</defs>
</svg>
